<?xml version="1.0" standalone="no"?>
<!DOCTYPE svg PUBLIC "-//W3C//DTD SVG 20010904//EN"
 "http://www.w3.org/TR/2001/REC-SVG-20010904/DTD/svg10.dtd">
<svg version="1.0" xmlns="http://www.w3.org/2000/svg"
 width="2400.000000pt" height="2400.000000pt" viewBox="0 0 2400.000000 2400.000000"
 preserveAspectRatio="xMidYMid meet">
<metadata>
Created by potrace 1.14, written by Peter Selinger 2001-2017
</metadata>
<g transform="translate(0.000000,2400.000000) scale(0.100000,-0.100000)"
fill="#000000" stroke="none">
<path d="M15308 15464 c-3 -3 -82 -5 -174 -5 l-169 -1 0 -3401 1 -3402 419 0
420 0 0 3400 0 3400 -98 1 c-53 1 -104 4 -111 7 -8 3 -16 3 -19 0 -8 -7 -242
-7 -254 0 -6 4 -13 4 -15 1z"/>
<path d="M17547 15464 c-3 -3 -102 -5 -220 -5 -159 0 -216 -3 -219 -12 -2 -7
-4 -1537 -3 -3402 l0 -3390 420 -2 421 -1 0 3404 0 3405 -51 -2 c-27 -1 -54 0
-60 1 -5 1 -12 2 -15 1 -15 -5 -249 -3 -257 2 -6 4 -13 4 -16 1z"/>
<path d="M0 11848 l0 -3203 1532 1 c1350 1 1670 4 1746 19 10 2 43 6 72 10 29
4 62 9 74 11 12 2 32 6 46 9 14 3 61 14 105 25 44 11 91 23 104 26 13 3 31 9
40 13 9 5 21 10 26 11 83 19 364 151 430 202 6 4 44 33 85 64 230 172 413 427
509 709 26 78 60 215 67 268 3 23 7 53 8 67 15 110 19 163 20 288 0 79 -1 146
-3 148 -3 2 -6 23 -8 47 -8 91 -60 305 -86 352 -6 11 -12 27 -14 35 -5 31 -96
196 -150 274 -75 106 -193 235 -273 296 -18 14 -41 33 -52 42 -11 9 -45 34
-76 55 -31 21 -59 40 -62 43 -12 12 -241 131 -285 148 -16 6 -43 17 -60 23
-16 7 -32 13 -35 13 -3 1 -18 6 -35 13 -76 29 -268 80 -365 97 -14 3 -25 5
-25 6 0 1 -9 3 -20 4 -65 9 -134 18 -159 22 -15 3 -44 5 -63 6 -18 1 -30 4
-26 8 8 7 102 32 203 54 11 3 24 7 28 10 5 3 19 7 33 10 54 10 332 116 337
129 2 4 10 7 17 7 17 0 159 72 163 83 2 4 8 7 14 7 16 0 176 107 248 165 111
90 208 191 270 280 19 28 38 52 43 53 4 2 7 10 7 17 0 8 6 20 13 27 21 22 84
158 110 238 50 150 70 275 70 435 0 83 -10 230 -19 265 -3 14 -6 32 -6 40 0 8
-5 33 -10 55 -6 22 -12 51 -14 65 -3 14 -10 41 -16 60 -7 19 -12 38 -13 42 0
3 -3 10 -8 14 -4 4 -7 18 -7 31 0 13 -4 23 -10 23 -5 0 -10 6 -10 14 0 19 -98
210 -119 233 -9 10 -28 34 -41 53 -13 19 -39 51 -56 70 -18 19 -41 44 -51 55
-10 11 -47 45 -83 75 -36 30 -66 58 -68 63 -2 4 -7 7 -11 7 -5 0 -41 22 -82
49 -64 42 -116 69 -284 147 -17 8 -41 16 -52 18 -12 3 -31 10 -42 16 -12 6
-21 8 -21 4 0 -3 -6 -2 -12 3 -7 6 -38 16 -68 23 -30 7 -59 15 -65 19 -5 3
-14 6 -20 7 -5 1 -26 5 -45 9 -94 19 -192 37 -220 40 -14 2 -25 4 -25 4 0 1
-25 4 -55 7 -30 2 -77 7 -105 11 -27 4 -710 8 -1517 10 l-1468 4 0 -3203z
m2590 2728 c64 -8 86 -12 120 -20 24 -6 50 -11 114 -22 49 -9 197 -64 268 -99
136 -67 247 -156 334 -265 24 -30 49 -61 54 -67 14 -17 99 -184 98 -192 -1 -3
4 -18 10 -33 16 -40 40 -135 48 -193 3 -27 8 -59 11 -70 4 -22 4 -266 -1 -305
-5 -40 -17 -100 -33 -165 -8 -33 -16 -64 -18 -70 -1 -5 -6 -19 -10 -30 -5 -11
-17 -42 -27 -68 -85 -223 -271 -425 -508 -554 -59 -32 -226 -101 -263 -109
-12 -2 -31 -6 -42 -9 -78 -20 -195 -42 -217 -40 -16 0 -28 -1 -28 -4 0 -4 -42
-8 -92 -10 -125 -5 -1390 -8 -1405 -3 -10 3 -13 245 -13 1166 0 640 2 1165 5
1168 8 7 1532 2 1595 -6z m-110 -2870 c138 -10 247 -23 260 -31 3 -2 28 -6 54
-10 27 -3 52 -8 57 -11 5 -3 18 -7 29 -10 65 -14 89 -21 145 -44 11 -4 36 -14
55 -21 96 -35 259 -128 340 -195 43 -36 150 -143 150 -150 0 -3 7 -12 15 -21
39 -39 113 -168 163 -283 25 -57 69 -234 80 -323 9 -73 8 -365 -2 -407 -3 -13
-8 -41 -11 -62 -9 -60 -43 -181 -65 -233 -11 -25 -20 -51 -20 -57 0 -5 -8 -22
-19 -36 -10 -15 -22 -38 -26 -52 -4 -14 -11 -27 -15 -30 -4 -3 -16 -19 -26
-36 -43 -70 -75 -112 -130 -171 -51 -53 -87 -83 -216 -183 -14 -11 -33 -20
-42 -20 -9 0 -16 -4 -16 -9 0 -4 -30 -22 -67 -39 -78 -36 -203 -83 -203 -77 0
2 -16 -3 -35 -11 -19 -7 -51 -16 -72 -19 -21 -4 -44 -8 -52 -11 -7 -2 -34 -7
-60 -10 -25 -3 -57 -8 -71 -11 -30 -7 -1659 -12 -1677 -5 -17 5 -19 2578 -3
2584 19 6 1385 0 1480 -6z"/>
<path d="M11408 13365 c-2 -3 -58 -7 -124 -9 -65 -3 -136 -7 -156 -11 -21 -3
-55 -7 -75 -10 -21 -3 -60 -10 -88 -15 -27 -5 -61 -12 -75 -14 -14 -2 -47 -10
-75 -16 -27 -6 -58 -13 -69 -15 -36 -8 -222 -69 -246 -82 -14 -7 -31 -13 -38
-13 -7 0 -20 -4 -30 -9 -9 -5 -30 -15 -47 -22 -16 -8 -33 -18 -37 -24 -4 -5
-8 -6 -8 -2 0 7 -96 -41 -195 -97 -66 -37 -204 -134 -290 -203 -97 -78 -264
-244 -315 -312 -13 -18 -33 -43 -45 -56 -122 -142 -297 -470 -366 -689 -11
-34 -22 -68 -26 -76 -3 -8 -7 -22 -8 -30 -1 -8 -10 -44 -20 -80 -20 -77 -24
-93 -30 -143 -3 -21 -7 -48 -10 -60 -21 -95 -30 -217 -30 -427 0 -218 12 -362
40 -500 39 -184 97 -382 144 -485 60 -130 128 -266 153 -302 15 -23 28 -46 28
-51 0 -5 9 -17 20 -27 11 -10 20 -22 20 -26 0 -8 36 -58 83 -119 134 -171 320
-349 482 -461 28 -19 52 -37 53 -41 2 -5 8 -8 14 -8 5 0 22 -8 36 -19 57 -40
215 -124 302 -159 30 -13 64 -27 75 -32 23 -10 162 -60 185 -66 151 -40 245
-62 320 -74 180 -29 251 -34 485 -34 228 1 353 10 499 40 11 2 35 7 51 10 94
17 334 87 412 121 21 9 43 17 49 19 6 1 49 20 97 43 47 22 91 41 96 41 6 0 11
3 11 8 0 4 19 16 43 27 23 10 77 41 120 67 43 26 82 48 87 48 5 0 10 3 12 8 2
4 35 32 73 63 105 84 322 307 334 342 2 7 11 19 20 28 9 9 22 25 28 35 7 11
31 45 53 77 21 31 36 57 32 57 -4 0 -2 4 5 8 22 14 173 325 188 387 1 6 5 17
8 25 15 42 37 115 37 127 0 11 -84 13 -454 13 l-455 0 -12 -55 c-7 -31 -16
-58 -21 -61 -4 -3 -8 -14 -8 -24 0 -57 -120 -317 -208 -450 -46 -70 -199 -236
-253 -275 -8 -6 -38 -27 -66 -49 -29 -21 -53 -34 -53 -30 0 4 -8 0 -17 -8 -36
-31 -219 -104 -303 -122 -14 -3 -36 -8 -50 -11 -25 -6 -40 -8 -135 -20 -57 -8
-312 -8 -365 -1 -19 2 -55 7 -80 11 -103 14 -303 67 -327 87 -7 6 -13 8 -13 4
0 -9 -148 66 -214 109 -30 19 -81 57 -113 83 -51 43 -75 67 -158 156 -51 54
-162 228 -198 311 -10 22 -23 49 -29 59 -10 18 -64 163 -74 196 -44 159 -52
194 -48 202 3 4 0 8 -5 8 -6 0 -10 3 -9 8 1 4 -1 25 -5 47 -4 22 -9 56 -12 75
-3 19 -8 51 -11 70 -3 19 -7 53 -9 75 -3 22 -7 58 -10 80 -3 22 -8 93 -10 157
l-5 117 1698 0 c933 0 1798 0 1921 1 l223 0 -6 183 c-6 202 -13 284 -31 377
-3 14 -7 39 -10 55 -14 84 -41 192 -71 285 -15 47 -28 87 -29 90 -1 3 -5 13
-9 22 -4 9 -9 22 -10 30 -12 55 -187 398 -208 406 -4 2 -8 8 -8 13 0 6 -13 27
-28 47 -16 20 -47 62 -70 92 -91 122 -187 219 -362 371 -20 17 -213 146 -295
196 -18 12 -83 44 -95 48 -3 1 -36 16 -75 34 -74 35 -83 39 -155 66 -67 26
-262 83 -305 90 -11 2 -56 10 -100 19 -44 9 -100 18 -125 21 -25 3 -62 8 -82
11 -21 2 -87 7 -148 9 -60 2 -113 6 -118 9 -4 2 -14 1 -22 -4 -8 -5 -19 -5
-26 0 -6 6 -13 8 -16 5z m222 -499 c189 -20 377 -83 528 -178 86 -54 101 -67
192 -158 120 -119 193 -223 268 -384 40 -83 83 -206 74 -206 -4 0 -2 -4 4 -8
10 -7 38 -113 58 -217 17 -93 23 -141 31 -245 l6 -85 -1383 2 c-761 0 -1388 2
-1395 2 -9 1 -12 80 -3 101 1 3 2 8 2 11 -1 6 28 158 43 224 9 40 27 110 32
125 4 8 8 21 10 28 1 6 5 18 6 25 2 6 8 21 12 32 5 11 17 43 27 70 26 67 101
219 110 223 5 2 8 8 8 14 0 22 119 177 195 255 44 45 116 107 160 138 76 54
270 155 298 155 7 0 18 5 25 12 7 7 12 9 12 5 0 -3 18 0 40 8 22 8 40 12 40 9
0 -2 8 0 18 5 11 6 41 13 68 17 27 3 52 8 56 10 4 3 49 7 100 11 51 3 94 7 96
8 4 3 206 -4 262 -9z"/>
<path d="M21206 13363 c-3 -3 -25 -7 -48 -8 -52 -3 -170 -14 -218 -22 -19 -3
-44 -6 -55 -8 -11 -1 -40 -7 -65 -13 -25 -6 -60 -14 -79 -17 -19 -3 -66 -15
-105 -26 -39 -11 -75 -22 -81 -23 -5 -2 -23 -9 -40 -15 -16 -7 -38 -14 -47
-16 -9 -2 -25 -8 -35 -13 -10 -6 -22 -11 -28 -12 -62 -13 -358 -166 -420 -217
-5 -5 -26 -18 -45 -30 -20 -12 -45 -30 -57 -40 -12 -10 -34 -27 -49 -38 -131
-95 -349 -326 -449 -475 -27 -41 -53 -76 -57 -78 -5 -2 -8 -8 -8 -13 0 -5 -16
-34 -35 -64 -34 -52 -156 -295 -149 -295 1 0 -7 -24 -20 -52 -21 -48 -73 -209
-92 -283 -4 -16 -8 -32 -9 -35 -3 -11 -25 -117 -29 -140 -3 -14 -5 -25 -6 -25
-1 0 -3 -13 -5 -30 -2 -16 -6 -48 -9 -69 -27 -191 -27 -488 0 -711 11 -92 14
-113 24 -144 5 -19 8 -37 5 -39 -3 -3 0 -11 6 -19 6 -7 9 -13 6 -13 -3 0 -1
-15 4 -32 6 -18 12 -44 15 -58 3 -14 12 -50 21 -80 9 -30 18 -59 19 -65 12
-48 87 -224 139 -330 81 -163 252 -425 277 -425 4 0 8 -6 8 -12 0 -24 238
-260 340 -337 25 -19 47 -37 50 -40 3 -4 39 -29 80 -56 41 -26 87 -57 102 -67
15 -10 31 -18 37 -18 5 0 11 -3 13 -8 3 -7 229 -122 241 -122 4 0 26 -8 50
-18 45 -20 133 -52 157 -57 8 -2 15 -4 15 -5 0 -1 7 -3 15 -5 8 -2 33 -9 55
-15 46 -13 46 -13 180 -40 55 -12 116 -23 135 -25 19 -2 67 -7 105 -12 88 -9
409 -10 495 0 118 13 189 24 265 42 25 6 64 15 91 20 61 13 282 92 329 118 11
6 22 12 25 12 19 4 90 41 90 47 0 5 5 8 12 8 6 0 51 25 101 55 49 30 91 55 93
55 3 0 16 11 30 25 14 14 28 25 32 25 4 0 18 10 32 23 14 12 41 35 60 51 114
93 256 248 349 380 l41 59 1 -49 c0 -27 1 -211 2 -409 l2 -360 443 -2 442 -1
0 2294 c0 1262 -3 2294 -7 2295 -5 1 -93 2 -197 3 -203 1 -210 0 -222 -50 -3
-13 -10 -24 -15 -24 -5 0 -9 -5 -9 -11 0 -13 -67 -165 -92 -209 -4 -8 -11 -22
-14 -30 -4 -8 -19 -42 -35 -76 -16 -33 -29 -63 -29 -66 0 -5 -55 -125 -123
-268 -12 -25 -22 -47 -23 -50 0 -3 -13 -33 -29 -67 l-28 -61 -19 23 c-10 13
-18 26 -18 29 0 10 -93 140 -154 216 -65 80 -209 227 -266 272 -19 15 -62 48
-95 73 -33 24 -65 49 -72 55 -7 5 -17 10 -23 10 -5 0 -10 5 -10 10 0 6 -7 10
-15 10 -8 0 -15 3 -15 8 0 4 -10 12 -23 18 -86 43 -184 95 -194 104 -7 5 -21
10 -33 10 -11 0 -20 5 -20 10 0 6 -8 10 -18 10 -10 0 -22 3 -26 7 -6 6 -68 31
-91 36 -5 2 -14 5 -20 9 -8 5 -46 16 -145 43 -46 12 -210 47 -240 51 -80 10
-168 17 -222 18 -32 1 -58 3 -58 6 0 5 -82 4 -136 -1 -16 -2 -34 0 -40 4 -6 3
-14 4 -18 0z m450 -505 c5 -4 31 -9 56 -12 25 -3 52 -8 59 -11 8 -2 25 -6 39
-9 114 -19 350 -127 482 -219 146 -102 294 -253 394 -400 26 -39 53 -75 59
-79 5 -4 6 -8 1 -8 -5 0 -2 -8 6 -17 21 -24 109 -202 137 -278 13 -33 26 -67
30 -75 7 -13 36 -107 47 -150 2 -8 9 -35 15 -60 6 -25 13 -55 14 -67 2 -11 6
-31 10 -43 4 -12 8 -36 10 -53 2 -18 6 -43 9 -57 13 -67 19 -173 20 -360 1
-250 -13 -397 -54 -560 -6 -25 -13 -56 -16 -70 -2 -14 -11 -42 -19 -62 -8 -21
-12 -38 -9 -38 3 0 2 -6 -3 -12 -4 -7 -8 -16 -9 -20 -1 -5 -2 -9 -4 -10 -1 -2
-3 -10 -5 -18 -17 -68 -131 -313 -183 -394 -149 -231 -312 -396 -526 -530 -50
-31 -95 -56 -101 -56 -6 0 -16 -5 -23 -12 -6 -6 -17 -13 -24 -14 -7 -1 -40
-14 -73 -29 -33 -15 -62 -27 -65 -27 -6 -1 -13 -3 -65 -19 -22 -7 -44 -13 -50
-14 -5 -1 -26 -4 -45 -9 -19 -4 -48 -9 -65 -11 -16 -2 -30 -4 -30 -5 0 -12
-334 -17 -415 -7 -76 10 -165 27 -235 47 -22 6 -44 12 -50 13 -24 7 -123 47
-150 61 -16 9 -34 16 -38 16 -5 0 -43 21 -85 46 -186 113 -337 259 -459 444
-47 72 -124 204 -124 215 0 2 -11 31 -26 62 -14 32 -26 63 -28 68 -1 6 -7 22
-13 37 -31 75 -89 297 -106 408 -3 14 -8 45 -12 70 -4 25 -8 59 -9 75 -2 17
-6 66 -10 110 -11 114 -7 520 5 520 0 0 3 24 5 52 2 29 6 72 10 95 4 24 8 54
11 68 2 14 10 59 19 100 8 41 18 89 21 105 3 17 11 36 16 43 6 6 8 12 5 12
-12 0 85 269 109 305 8 11 14 27 14 37 0 10 3 18 8 18 4 0 13 15 21 33 8 17
31 58 52 91 22 32 39 61 39 65 0 3 10 17 23 31 13 14 34 42 48 62 14 21 29 35
32 31 4 -3 7 -1 7 6 0 17 118 134 190 189 30 23 60 45 65 50 20 16 112 67 176
98 65 32 239 97 239 90 0 -2 21 2 48 10 46 15 115 26 160 27 12 1 22 4 22 7 0
9 382 6 396 -2z"/>
<path d="M8356 13303 c-1 -1 -29 -5 -61 -8 -33 -3 -73 -8 -90 -12 -16 -3 -39
-7 -50 -8 -11 -2 -20 -4 -20 -5 0 -1 -11 -3 -24 -6 -13 -2 -49 -12 -80 -21
-31 -9 -58 -18 -61 -18 -3 -1 -18 -7 -35 -14 -16 -7 -34 -14 -40 -15 -49 -9
-300 -151 -375 -212 -252 -206 -482 -501 -614 -787 -48 -103 -86 -198 -86
-214 0 -27 -28 -12 -35 20 -4 17 -9 34 -10 37 -16 42 -87 253 -89 267 -1 7 -5
16 -9 19 -4 4 -7 16 -7 26 0 10 -4 26 -9 36 -5 9 -28 76 -51 147 -23 72 -45
137 -48 145 -3 8 -6 20 -8 25 -7 25 -27 82 -35 97 -5 10 -9 26 -9 36 0 10 -3
22 -7 26 -5 4 -8 11 -8 14 -1 4 -27 86 -60 182 -33 96 -58 178 -57 183 1 4
-90 7 -203 7 -113 0 -206 -3 -206 -7 -1 -5 -2 -1037 -3 -2296 l-1 -2287 28 -1
c35 -1 787 -1 830 0 l32 1 1 1023 c0 562 4 1069 9 1127 4 58 9 124 9 147 1 24
3 43 6 43 3 0 5 12 6 28 1 34 14 139 19 155 2 7 6 28 9 47 8 53 19 102 35 170
7 25 13 53 16 63 2 9 6 21 9 25 3 5 7 19 10 33 6 29 50 149 65 177 6 10 7 22
4 26 -3 3 -1 6 5 6 7 0 12 5 12 10 0 15 86 168 117 209 74 100 141 166 253
254 126 99 379 201 555 223 22 3 51 8 65 11 36 8 366 7 425 -1 69 -9 150 -19
152 -18 2 0 16 -3 33 -8 16 -5 31 -6 31 -2 4 25 3 874 -1 877 -17 10 -335 27
-344 18z"/>
</g>
</svg>
